<?xml version="1.0" encoding="UTF-8"?>
<!DOCTYPE svg PUBLIC "-//W3C//DTD SVG 1.1//EN" "http://www.w3.org/Graphics/SVG/1.1/DTD/svg11.dtd">
<!-- Creator: CorelDRAW 2019 (64-Bit) -->
<svg xmlns="http://www.w3.org/2000/svg" xml:space="preserve" width="200px" height="35px" version="1.1" style="shape-rendering:geometricPrecision; text-rendering:geometricPrecision; image-rendering:optimizeQuality; fill-rule:evenodd; clip-rule:evenodd"
viewBox="0 0 200 35"
 xmlns:xlink="http://www.w3.org/1999/xlink">
 <defs>
  <style type="text/css">
   <![CDATA[
    .fil0 {fill:#434242}
   ]]>
  </style>
 </defs>
 <g id="Слой_x0020_1">
  <metadata id="CorelCorpID_0Corel-Layer"/>
  <path class="fil0" d="M78.31 2.97c0.82,0.09 1.61,0.25 2.39,0.47l1.28 -1.5 2.11 0.87 -0.16 1.97c0.71,0.4 1.38,0.85 2.02,1.36l1.76 -0.91 1.62 1.61 -0.91 1.77c0.51,0.63 0.96,1.31 1.36,2.02l1.97 -0.16 0.87 2.11 -1.5 1.28c0.22,0.78 0.37,1.57 0.47,2.39l1.88 0.61 0 2.28 -1.88 0.61c-0.09,0.82 -0.25,1.61 -0.47,2.39l1.5 1.28 -0.87 2.11 -1.97 -0.16c-0.4,0.71 -0.85,1.38 -1.36,2.02l0.91 1.76 -1.62 1.61 -1.76 -0.9c-0.64,0.51 -1.31,0.96 -2.02,1.36l0.16 1.97 -2.11 0.87 -1.28 -1.51c-0.78,0.22 -1.57,0.38 -2.39,0.48l-0.61 1.88 -2.28 0 -0.61 -1.88c-0.82,-0.1 -1.61,-0.26 -2.39,-0.47l-1.28 1.5 -2.11 -0.87 0.16 -1.97c-0.71,-0.4 -1.38,-0.85 -2.02,-1.36l-1.76 0.9 -1.62 -1.61 0.91 -1.76c-0.51,-0.64 -0.96,-1.31 -1.36,-2.02l-1.97 0.16 -0.87 -2.11 1.5 -1.28c-0.21,-0.78 -0.37,-1.57 -0.47,-2.39l-1.88 -0.61 0 -2.28 1.88 -0.61c0.09,-0.82 0.25,-1.62 0.47,-2.39l-1.5 -1.28 0.87 -2.11 1.97 0.16c0.4,-0.71 0.85,-1.39 1.36,-2.02l-0.91 -1.77 1.62 -1.61 1.76 0.91c0.64,-0.51 1.31,-0.96 2.02,-1.36l-0.16 -1.97 2.11 -0.87 1.28 1.5c0.78,-0.22 1.57,-0.38 2.39,-0.47l0.61 -1.89 2.28 0 0.61 1.89zm-1.56 12.31c0.67,0.05 1.28,0.34 1.73,0.79 0.46,0.46 0.75,1.06 0.8,1.74l2.26 0c-0.05,-1.3 -0.59,-2.48 -1.45,-3.34 -0.87,-0.86 -2.04,-1.41 -3.34,-1.45l0 2.26zm2.53 2.91c-0.05,0.67 -0.34,1.28 -0.8,1.73 -0.45,0.45 -1.06,0.75 -1.73,0.79l0 2.27c1.3,-0.05 2.47,-0.59 3.34,-1.46 0.86,-0.86 1.4,-2.03 1.45,-3.33l-2.26 0zm-2.91 2.52c-0.67,-0.04 -1.28,-0.34 -1.73,-0.79 -0.46,-0.45 -0.75,-1.06 -0.8,-1.73l-2.26 0c0.04,1.3 0.59,2.47 1.45,3.33 0.87,0.87 2.04,1.41 3.34,1.46l0 -2.27zm-2.53 -2.9c0.05,-0.68 0.34,-1.28 0.8,-1.74 0.45,-0.45 1.06,-0.74 1.73,-0.79l0 -2.26c-1.3,0.04 -2.47,0.59 -3.34,1.45 -0.86,0.86 -1.41,2.04 -1.45,3.34l2.26 0zm3.86 -0.95c-0.29,-0.29 -0.7,-0.47 -1.14,-0.47 -0.44,0 -0.85,0.18 -1.14,0.47 -0.29,0.29 -0.47,0.69 -0.47,1.14 0,0.44 0.18,0.84 0.47,1.14 0.29,0.29 0.7,0.47 1.14,0.47 0.44,0 0.85,-0.18 1.14,-0.47 0.29,-0.3 0.47,-0.7 0.47,-1.14 0,-0.45 -0.18,-0.85 -0.47,-1.14zm-0.95 -4.22c1.4,0.05 2.67,0.64 3.6,1.57 0.93,0.93 1.52,2.2 1.57,3.6l1.52 0 0.73 -0.34c-0.13,-1.9 -0.95,-3.6 -2.22,-4.86 -1.26,-1.27 -2.96,-2.09 -4.86,-2.22l-0.34 0.73 0 1.52zm5.17 5.55c-0.05,1.4 -0.64,2.67 -1.57,3.6 -0.93,0.93 -2.2,1.52 -3.6,1.57l0 1.51 0.34 0.74c1.9,-0.13 3.6,-0.96 4.86,-2.22 1.27,-1.26 2.09,-2.97 2.22,-4.86l-0.73 -0.34 -1.52 0zm-5.55 5.17c-1.4,-0.05 -2.67,-0.64 -3.6,-1.57 -0.93,-0.93 -1.52,-2.2 -1.57,-3.6l-1.52 0 -0.73 0.34c0.13,1.89 0.96,3.6 2.22,4.86 1.26,1.26 2.96,2.09 4.86,2.22l0.34 -0.74 0 -1.51zm-5.17 -5.55c0.05,-1.4 0.64,-2.67 1.57,-3.6 0.93,-0.93 2.2,-1.52 3.6,-1.57l0 -1.52 -0.34 -0.73c-1.9,0.13 -3.6,0.95 -4.86,2.22 -1.26,1.26 -2.09,2.96 -2.22,4.86l0.73 0.34 1.52 0zm5.91 -7.79c1.99,0.13 3.78,1 5.11,2.32 1.32,1.33 2.19,3.12 2.32,5.11l2.24 0c-0.28,-5.22 -4.45,-9.39 -9.67,-9.67l0 2.24zm7.43 8.53c-0.13,1.99 -1,3.78 -2.32,5.11 -1.33,1.32 -3.12,2.19 -5.11,2.32l0 2.24c5.22,-0.28 9.39,-4.46 9.67,-9.67l-2.24 0zm-8.53 7.43c-1.99,-0.13 -3.78,-1 -5.11,-2.32 -1.32,-1.33 -2.19,-3.12 -2.32,-5.11l-2.24 0c0.28,5.21 4.45,9.39 9.67,9.67l0 -2.24zm-7.43 -8.53c0.13,-1.99 1,-3.78 2.32,-5.11 1.33,-1.32 3.12,-2.19 5.11,-2.32l0 -2.24c-5.22,0.28 -9.39,4.45 -9.67,9.67l2.24 0zm-55.88 -12.3l-12.7 0 0 4.85 3.67 0 0 20.84 5.36 0 0 -20.84 3.67 0 0 -4.85zm13.06 0l-11.37 0 0 25.69 11.37 0 0 -4.84 -6.02 0 0 -6.31 5.11 0 0 -4.85 -5.11 0 0 -4.84 6.02 0 0 -4.85zm16.37 3.75l-3.89 -3.75 -6.61 0 -3.89 3.75 0 18.2 3.89 3.74 6.61 0 3.89 -3.74 0 -7.23 -5.36 0 0 6.13 -3.67 0 0 -16 3.67 0 0 4.99 5.36 0 0 -6.09zm14.32 -3.75l-12.7 0 0 4.85 3.67 0 0 20.84 5.35 0 0 -20.84 3.68 0 0 -4.85zm55.62 3.75l-3.9 -3.75 -6.6 0 -3.89 3.75 0 18.2 3.89 3.74 6.6 0 3.9 -3.74 0 -18.2zm-5.36 1.1l0 16 -3.67 0 0 -16 3.67 0zm22.24 -1.1l-3.89 -3.75 -9.91 0 0 25.69 5.36 0 0 -8.58 4.55 0 3.89 -3.75 0 -9.61zm-5.36 1.1l0 7.41 -3.08 0 0 -7.41 3.08 0zm13.65 10.09l-0.07 0 -2.2 -14.94 -5.73 0 5.03 20.85 -4.29 0 0 4.84 5.76 0 3.89 -3.74 4.95 -21.95 -5.72 0 -1.62 14.94zm22.5 -14.94l-5.36 0 0 10.98 -0.07 0 -4.04 -10.98 -5.72 0 5.02 11.6 -5.5 14.09 5.94 0 4.3 -10.97 0.07 0 0 10.97 5.36 0 0 -10.97 0.07 0 4.3 10.97 5.94 0 -5.5 -14.09 5.03 -11.6 -5.73 0 -4.04 10.98 -0.07 0 0 -10.98zm11.49 0l0 25.69 4.66 0 4.22 -13.24 0.07 0 0 13.24 5.36 0 0 -25.69 -4.66 0 -4.22 13.25 -0.07 0 0 -13.25 -5.36 0zm28.77 0l-11.38 0 0 25.69 11.38 0 0 -4.84 -6.02 0 0 -6.31 5.1 0 0 -4.85 -5.1 0 0 -4.84 6.02 0 0 -4.85z"/>
 </g>
</svg>
